<?xml version="1.0" encoding="UTF-8"?><svg id="Capa_1" xmlns="http://www.w3.org/2000/svg" viewBox="0 0 727.86 434.02"><defs><style>.cls-1{fill:#ffb088;}.cls-2,.cls-3{opacity:.7;}.cls-4{fill:#61f2ad;}.cls-5{fill:#fff;}.cls-6{fill:#ff9c9c;}.cls-7,.cls-8,.cls-9,.cls-10,.cls-3,.cls-11{fill-rule:evenodd;}.cls-7,.cls-12{fill:#9dc553;}.cls-13,.cls-10{fill:#35d8c8;}.cls-14{fill:#c7d65b;}.cls-8{fill:#a0c251;}.cls-15{stroke-width:2.79px;}.cls-15,.cls-16,.cls-17{fill:none;stroke:#7c5b41;stroke-linecap:round;stroke-miterlimit:10;}.cls-9{fill:#a2f9bc;}.cls-18,.cls-11{fill:#f79292;}.cls-3{fill:#efd96a;}.cls-19{fill:#ff953e;}.cls-20{fill:#38e4d7;}.cls-21{fill:#7c5b41;}.cls-16{stroke-width:3.1px;}.cls-22{fill:#f4df76;}.cls-23{fill:#f39600;}.cls-17{stroke-width:3.4px;}</style></defs><g><path class="cls-14" d="m191.51,414.61c-2.62-1.53-4.7-3.62-6.22-6.27-1.53-2.65-2.29-5.59-2.29-8.8s.74-6.24,2.22-8.88c1.48-2.64,3.5-4.7,6.08-6.2s5.47-2.24,8.68-2.24c1.74,0,3.44.21,5.11.63,1.67.42,3.1,1.01,4.29,1.79l-1.3,7.48c-2.32-.87-4.41-1.3-6.27-1.3-2.57,0-4.55.75-5.93,2.24-1.38,1.5-2.07,3.64-2.07,6.44s.73,4.86,2.19,6.39c1.46,1.53,3.5,2.29,6.1,2.29,1,0,1.93-.1,2.8-.29.87-.19,1.93-.55,3.18-1.06l1.35,7.62c-2.8,1.64-5.85,2.46-9.16,2.46s-6.13-.76-8.75-2.29Z"/><path class="cls-14" d="m217.99,414.9c-2.07-1.08-3.69-2.56-4.85-4.44-1.16-1.88-1.74-4.01-1.74-6.39s.59-4.61,1.78-6.51c1.19-1.9,2.8-3.36,4.82-4.39,2.03-1.03,4.28-1.54,6.75-1.54s4.41.52,6.1,1.57,2.95,2.46,3.79,4.24c.84,1.78,1.25,3.79,1.25,6,0,.58-.03,1-.1,1.25l-14.47,1.88c.39,1.13,1.01,1.94,1.88,2.44.87.5,2.01.75,3.42.75,2.19,0,4.55-.56,7.09-1.69l1.21,6.46c-2.99,1.32-6.27,1.98-9.84,1.98-2.67,0-5.04-.54-7.11-1.62Zm10.44-14.4c-.51-2.03-1.74-3.04-3.67-3.04-1.16,0-2.07.43-2.75,1.3-.68.87-1.03,1.99-1.06,3.38l7.48-1.64Z"/><path class="cls-14" d="m239.43,392.3h9.69v4.92c1.86-3.73,4.82-5.6,8.88-5.6,3.09,0,5.51,1.1,7.26,3.3s2.63,5.25,2.63,9.14v12.06h-10.13v-13.07c0-1.38-.3-2.44-.89-3.18-.59-.74-1.42-1.11-2.48-1.11-.77,0-1.53.25-2.27.75-.74.5-1.34,1.21-1.81,2.15s-.7,1.99-.7,3.18v11.29h-10.18v-23.83Z"/><path class="cls-14" d="m276.09,414.08c-1.58-1.62-2.36-3.87-2.36-6.73v-9.41h-3.09v-5.98h3.81l4.49-9.12h4.87v9.12h5.6v5.98h-5.6v8.2c0,.8.26,1.43.77,1.88.51.45,1.24.68,2.17.68.87,0,1.66-.19,2.36-.58l.39,6.75c-.8.48-1.84.88-3.11,1.18-1.27.3-2.5.46-3.69.46-2.83,0-5.03-.81-6.61-2.44Z"/><path class="cls-14" d="m293.11,392.3h10.18v4.92c.74-1.9,1.74-3.3,3.01-4.22,1.27-.92,2.76-1.38,4.46-1.38l1.4,7.86c-3.06,0-5.3.33-6.73.99-1.43.66-2.15,1.7-2.15,3.11v12.54h-10.18v-23.83Z"/><path class="cls-14" d="m320.1,414.92c-2.11-1.06-3.75-2.53-4.92-4.41-1.17-1.88-1.76-4.04-1.76-6.49s.59-4.61,1.78-6.49c1.19-1.88,2.84-3.34,4.94-4.37,2.11-1.03,4.51-1.54,7.21-1.54s5.15.52,7.26,1.57c2.11,1.04,3.74,2.5,4.9,4.36,1.16,1.87,1.74,4.02,1.74,6.46s-.59,4.65-1.76,6.54c-1.17,1.88-2.81,3.34-4.92,4.39-2.11,1.04-4.53,1.57-7.26,1.57s-5.1-.53-7.21-1.59Zm10.56-7.11c.85-.98,1.28-2.24,1.28-3.79s-.43-2.81-1.28-3.79c-.85-.98-1.94-1.47-3.26-1.47s-2.4.49-3.26,1.47c-.85.98-1.28,2.24-1.28,3.79s.43,2.81,1.28,3.79c.85.98,1.94,1.47,3.26,1.47s2.4-.49,3.26-1.47Z"/><path class="cls-14" d="m354.61,382.94h11.14v33.18h-11.14v-33.18Z"/><path class="cls-14" d="m371.11,392.3h9.69v4.92c1.86-3.73,4.82-5.6,8.88-5.6,3.09,0,5.51,1.1,7.26,3.3s2.63,5.25,2.63,9.14v12.06h-10.13v-13.07c0-1.38-.3-2.44-.89-3.18-.59-.74-1.42-1.11-2.48-1.11-.77,0-1.53.25-2.27.75-.74.5-1.34,1.21-1.81,2.15s-.7,1.99-.7,3.18v11.29h-10.18v-23.83Z"/><path class="cls-14" d="m405.83,397.94h-3.04v-5.98h3.04v-2.03c0-3.57.86-6.27,2.58-8.1,1.72-1.83,4.12-2.75,7.21-2.75,2.48,0,4.78.63,6.9,1.88l-.34,6.51c-1.87-.74-3.42-1.11-4.68-1.11-.96,0-1.71.23-2.22.7-.51.47-.77,1.13-.77,2s.27,1.8.82,2.89h6.75v5.98h-6.08v18.18h-10.18v-18.18Z"/><path class="cls-14" d="m429.2,414.85c-1.82-1.11-3.27-2.62-4.37-4.53-1.09-1.91-1.64-4.04-1.64-6.39s.55-4.41,1.64-6.29c1.09-1.88,2.56-3.35,4.39-4.41,1.83-1.06,3.78-1.59,5.84-1.59,1.67,0,3.22.47,4.65,1.4s2.52,2.33,3.26,4.2v-5.6h10.13v24.5h-10.13v-4.49c-1.61,3.25-4.24,4.87-7.91,4.87-2.09,0-4.04-.55-5.86-1.66Zm12.3-7.33c.92-.92,1.41-2,1.47-3.26v-.39c-.06-1.29-.57-2.38-1.52-3.28-.95-.9-2.03-1.35-3.26-1.35-1.35,0-2.5.47-3.45,1.42s-1.42,2.08-1.42,3.4.48,2.49,1.45,3.42c.96.93,2.11,1.4,3.42,1.4s2.39-.46,3.3-1.37Z"/><path class="cls-14" d="m457.97,392.3h9.69v4.92c1.86-3.73,4.82-5.6,8.88-5.6,3.09,0,5.51,1.1,7.26,3.3s2.63,5.25,2.63,9.14v12.06h-10.13v-13.07c0-1.38-.3-2.44-.89-3.18-.59-.74-1.42-1.11-2.48-1.11-.77,0-1.53.25-2.27.75-.74.5-1.34,1.21-1.81,2.15s-.7,1.99-.7,3.18v11.29h-10.18v-23.83Z"/><path class="cls-14" d="m494.63,414.08c-1.58-1.62-2.36-3.87-2.36-6.73v-9.41h-3.09v-5.98h3.81l4.49-9.12h4.87v9.12h5.6v5.98h-5.6v8.2c0,.8.26,1.43.77,1.88.51.45,1.24.68,2.17.68.87,0,1.66-.19,2.36-.58l.39,6.75c-.8.48-1.84.88-3.11,1.18-1.27.3-2.5.46-3.69.46-2.83,0-5.03-.81-6.61-2.44Z"/><path class="cls-14" d="m512.84,386.92c-1.05-.95-1.57-2.11-1.57-3.5s.55-2.54,1.64-3.47c1.09-.93,2.35-1.4,3.76-1.4s2.76.48,3.83,1.45c1.08.96,1.62,2.11,1.62,3.42,0,1.42-.55,2.59-1.64,3.52-1.09.93-2.36,1.4-3.81,1.4s-2.79-.47-3.83-1.42Zm.99,26.99c-1.51-1.74-2.27-4.1-2.27-7.09v-14.86h10.23v14.42c0,.74.2,1.31.6,1.71.4.4.92.6,1.57.6s1.3-.19,1.98-.58l.53,6.7c-.71.55-1.63.96-2.77,1.25-1.14.29-2.32.43-3.55.43-2.7,0-4.81-.87-6.32-2.6Z"/><path class="cls-14" d="m531.41,413.93c-1.5-1.72-2.24-4.08-2.24-7.07v-22.53l10.18-1.5v23.3c0,.9.22,1.55.65,1.95.43.4,1.2.6,2.29.6.8,0,1.59-.19,2.36-.58l.34,6.75c-2.15,1.09-4.57,1.64-7.24,1.64s-4.85-.86-6.34-2.58Z"/></g><g><path class="cls-13" d="m49.34,332.18c4.58-.51,9.16-1,13.75-1.48,4.55,6.82,9.08,13.66,13.57,20.5,2.94-7.6,5.91-15.19,8.91-22.78,4.59-.45,9.17-.88,13.76-1.31,1.38,14.9,2.76,29.79,4.14,44.69-4.52.42-9.03.85-13.55,1.29-.77-7.94-1.55-15.89-2.32-23.83-2.27,5.47-4.53,10.93-6.77,16.4-1.85.19-3.7.37-5.55.56-3.32-4.91-6.65-9.81-10-14.7.84,7.94,1.67,15.87,2.51,23.81-4.51.48-9.02.96-13.53,1.46-1.64-14.87-3.28-29.74-4.93-44.61Z"/><path class="cls-13" d="m117.04,368.83c-2.59-1.28-4.74-3.14-6.45-5.58-1.71-2.44-2.72-5.25-3-8.41-.28-3.12.2-6.01,1.47-8.68,1.26-2.67,3.08-4.83,5.46-6.48,2.38-1.65,4.98-2.59,7.79-2.83,2.28-.19,4.46.26,6.52,1.35,2.06,1.1,3.69,2.86,4.91,5.29-.2-2.51-.41-5.03-.61-7.54,4.62-.37,9.23-.74,13.85-1.09.84,11.01,1.68,22.03,2.52,33.04-4.56.35-9.13.71-13.69,1.08-.16-2.02-.33-4.03-.49-6.05-1.82,4.56-5.2,7.03-10.15,7.45-2.82.24-5.53-.28-8.11-1.56Zm15.82-11.29c1.14-1.34,1.69-2.85,1.64-4.55-.01-.17-.03-.35-.04-.52-.23-1.73-1.04-3.14-2.43-4.25-1.39-1.11-2.92-1.59-4.58-1.45-1.84.15-3.35.93-4.53,2.31-1.18,1.39-1.7,2.97-1.54,4.75.16,1.82.94,3.3,2.36,4.45,1.42,1.15,3.01,1.64,4.8,1.49,1.74-.15,3.19-.89,4.33-2.22Z"/><path class="cls-13" d="m153.71,335.27c4.64-.34,9.28-.67,13.92-.99.15,2.21.31,4.43.46,6.64.83-2.63,2.07-4.62,3.73-5.98,1.65-1.35,3.65-2.11,5.98-2.26.87,3.5,1.74,6.99,2.6,10.49-4.17.27-7.19.92-9.08,1.94-1.89,1.02-2.77,2.49-2.64,4.4.39,5.64.78,11.28,1.17,16.92-4.59.32-9.18.64-13.76.98-.79-10.71-1.58-21.43-2.37-32.14Z"/><path class="cls-13" d="m187.92,362.24c-2.19-2.22-3.42-5.34-3.68-9.38-.42-6.68-.85-13.37-1.27-20.05,4.66-.3,9.33-.58,13.99-.85.38,6.49.76,12.98,1.14,19.47.06,1,.38,1.75.95,2.26.58.51,1.3.74,2.18.69.87-.05,1.75-.36,2.64-.94.41,3,.82,6.01,1.23,9.01-.92.79-2.14,1.43-3.66,1.91-1.52.48-3.11.77-4.76.87-3.65.22-6.57-.78-8.77-3Z"/><path class="cls-13" d="m215.4,361.93c-2.54-1.37-4.62-3.3-6.25-5.81-1.63-2.5-2.53-5.34-2.7-8.51-.17-3.13.41-6,1.77-8.62,1.35-2.62,3.25-4.72,5.68-6.28,2.43-1.56,5.06-2.42,7.88-2.56,2.29-.11,4.45.41,6.46,1.58,2.02,1.17,3.59,2.99,4.72,5.46-.12-2.52-.23-5.04-.35-7.56,4.62-.21,9.25-.41,13.87-.6.45,11.04.91,22.07,1.36,33.11-4.57.19-9.14.39-13.71.6-.09-2.02-.19-4.04-.28-6.06-1.98,4.49-5.44,6.85-10.4,7.1-2.83.14-5.51-.47-8.05-1.84Zm16.19-10.73c1.19-1.3,1.79-2.79,1.8-4.49,0-.17-.02-.35-.02-.52-.17-1.73-.93-3.18-2.28-4.33-1.35-1.15-2.86-1.69-4.53-1.61-1.84.09-3.38.81-4.61,2.15-1.23,1.35-1.8,2.91-1.71,4.69.09,1.82.83,3.33,2.2,4.53,1.37,1.19,2.96,1.75,4.75,1.66,1.75-.08,3.21-.77,4.4-2.07Z"/><path class="cls-13" d="m266.1,316.54c5.11-.17,10.22-.34,15.33-.48.43,14.95.86,29.91,1.29,44.86-5.03.14-10.06.3-15.09.47-.51-14.95-1.02-29.9-1.53-44.86Z"/><path class="cls-13" d="m289.12,328.5c4.43-.12,8.85-.22,13.28-.32.05,2.22.1,4.44.14,6.65,2.44-5.1,6.45-7.71,12-7.8,4.23-.07,7.57,1.37,10.01,4.31,2.44,2.95,3.69,7.05,3.75,12.31.07,5.44.14,10.87.2,16.31-4.57.06-9.15.13-13.72.21-.1-5.89-.2-11.78-.31-17.68-.03-1.87-.46-3.3-1.29-4.28-.83-.99-1.97-1.47-3.42-1.44-1.05.02-2.08.38-3.08,1.07-1,.69-1.8,1.68-2.41,2.95-.61,1.28-.9,2.72-.86,4.32.11,5.09.22,10.17.33,15.26-4.6.1-9.19.21-13.79.33-.28-10.74-.56-21.48-.84-32.22Z"/><path class="cls-13" d="m334.52,327.68c4.43-.05,8.86-.08,13.28-.11.01,2.22.02,4.44.04,6.65,1.48-2.57,3.18-4.49,5.09-5.73,1.91-1.25,4.19-1.87,6.84-1.88,2.6,0,4.86.64,6.77,1.92,1.92,1.29,3.35,3.02,4.32,5.19,2.82-4.73,6.94-7.09,12.31-7.05,2.56.02,4.79.71,6.69,2.08,1.9,1.37,3.37,3.33,4.4,5.88,1.03,2.56,1.52,5.55,1.48,8.99-.06,5.44-.12,10.87-.18,16.31-4.6-.05-9.19-.09-13.79-.12.03-5.44.07-10.87.1-16.31.01-2.22-.36-3.89-1.12-5.03-.76-1.14-1.82-1.71-3.18-1.71-1.49,0-2.78.62-3.86,1.88-1.08,1.26-1.62,2.78-1.63,4.56-.02,5.52-.03,11.05-.05,16.57-4.55-.01-9.1-.02-13.66,0-.01-5.44-.02-10.87-.03-16.31,0-2.22-.39-3.89-1.16-5.02-.77-1.13-1.86-1.69-3.27-1.69-1.49,0-2.77.64-3.81,1.91-1.05,1.27-1.56,2.79-1.56,4.57.03,5.52.06,11.05.09,16.57-4.6.02-9.19.06-13.79.11-.11-10.74-.22-21.48-.33-32.22Z"/><path class="cls-13" d="m408.43,358.38c-2.44-1.54-4.38-3.61-5.83-6.22-1.45-2.61-2.16-5.5-2.12-8.67.04-3.13.82-5.96,2.35-8.48,1.53-2.52,3.56-4.48,6.09-5.88,2.53-1.39,5.21-2.07,8.03-2.01,2.29.04,4.41.72,6.34,2.02,1.93,1.3,3.38,3.23,4.33,5.77.06-2.52.11-5.04.17-7.57,4.63.1,9.25.22,13.88.34-.3,11.04-.6,22.08-.9,33.13-4.57-.12-9.15-.24-13.72-.34.05-2.02.09-4.04.14-6.07-2.28,4.34-5.9,6.46-10.86,6.37-2.83-.05-5.46-.85-7.9-2.39Zm16.89-9.6c1.27-1.21,1.97-2.66,2.1-4.36,0-.17,0-.35.01-.52-.05-1.74-.71-3.23-1.97-4.48-1.27-1.24-2.74-1.89-4.41-1.92-1.84-.04-3.43.57-4.74,1.83-1.32,1.26-1.99,2.78-2.02,4.56-.03,1.83.6,3.38,1.89,4.67,1.29,1.29,2.83,1.95,4.62,1.98,1.75.04,3.26-.55,4.53-1.77Z"/><path class="cls-13" d="m454.31,359.61c-2.63-1.5-4.67-3.55-6.1-6.16-1.43-2.61-2.1-5.54-2.01-8.8.09-3.13.96-5.95,2.62-8.47,1.66-2.52,3.88-4.47,6.65-5.86,2.78-1.39,5.84-2.03,9.19-1.91,4.27.15,7.61,1.15,10.01,2.98-.53,2.87-1.06,5.75-1.59,8.62-2.47-.84-4.52-1.28-6.15-1.34-2.11-.08-3.8.46-5.07,1.62-1.27,1.15-1.94,2.75-2.01,4.79-.07,2.04.49,3.69,1.67,4.95,1.18,1.26,2.78,1.92,4.79,2,1.75.06,3.82-.23,6.2-.88.3,3.06.6,6.12.89,9.17-1.51.68-3.03,1.16-4.57,1.42-1.54.27-3.33.37-5.37.29-3.48-.12-6.54-.93-9.17-2.43Z"/><path class="cls-13" d="m486.45,361.11c-2.63-1.33-4.64-3.14-6.03-5.41-1.39-2.28-2.03-4.83-1.92-7.65.25-6.21.5-12.43.75-18.64,4.54.18,9.07.38,13.61.58-.28,6.15-.56,12.29-.83,18.44-.07,1.43.29,2.57,1.06,3.41.77.84,1.77,1.29,2.99,1.35,1.18.06,2.17-.3,2.97-1.07.8-.77,1.24-1.87,1.31-3.3.3-6.15.59-12.29.89-18.44,4.45.21,8.89.44,13.34.67-.33,6.21-.66,12.42-.99,18.63-.15,2.87-1.02,5.36-2.59,7.47-1.58,2.12-3.7,3.72-6.37,4.8-2.67,1.09-5.7,1.55-9.1,1.39-3.44-.16-6.47-.9-9.09-2.24Z"/><path class="cls-13" d="m522.27,361.23c-1.89-2.44-2.74-5.67-2.51-9.71.56-10.14,1.12-20.28,1.68-30.42,4.7-.42,9.4-.82,14.1-1.21-.63,10.48-1.26,20.97-1.89,31.45-.07,1.22.17,2.11.73,2.69.56.58,1.58.91,3.06,1,1.09.07,2.18-.13,3.26-.58-.04,3.05-.08,6.1-.11,9.14-3.01,1.29-6.32,1.83-9.93,1.62-3.7-.22-6.49-1.54-8.38-3.98Z"/><path class="cls-13" d="m550.47,364.2c-2.36-1.66-4.2-3.83-5.52-6.51-1.32-2.68-1.88-5.6-1.68-8.77.2-3.12,1.12-5.91,2.78-8.35,1.66-2.44,3.78-4.3,6.38-5.57,2.6-1.27,5.31-1.8,8.13-1.61,2.29.16,4.37.94,6.23,2.33,1.87,1.4,3.21,3.39,4.04,5.98.18-2.52.37-5.03.55-7.55,4.62.34,9.24.68,13.85,1.04-.86,11.01-1.71,22.03-2.57,33.04-4.56-.36-9.13-.7-13.69-1.03.15-2.02.29-4.03.44-6.05-2.5,4.22-6.22,6.15-11.17,5.81-2.83-.2-5.42-1.12-7.78-2.78Zm17.36-8.74c1.33-1.15,2.11-2.56,2.32-4.25.01-.17.03-.35.04-.52.04-1.74-.54-3.27-1.75-4.57-1.21-1.31-2.64-2.02-4.31-2.14-1.84-.13-3.45.4-4.83,1.59-1.38,1.19-2.13,2.68-2.25,4.46-.12,1.82.43,3.41,1.65,4.76,1.22,1.35,2.73,2.09,4.52,2.21,1.75.12,3.28-.39,4.62-1.53Z"/><path class="cls-13" d="m595.64,367.46c-2.29-1.76-4.02-3.98-5.21-6.67-1.19-2.69-1.67-5.49-1.44-8.39.25-3.08,1.2-5.85,2.88-8.31,1.67-2.46,3.82-4.33,6.42-5.6,2.6-1.27,5.31-1.78,8.13-1.54,2.55.22,4.67.93,6.36,2.12,1.69,1.2,2.98,2.99,3.87,5.39.49-5.46.97-10.92,1.46-16.37,4.71-.26,9.43-.5,14.14-.74-1.41,14.94-2.81,29.88-4.22,44.82-4.58-.43-9.16-.85-13.74-1.26.18-2.01.36-4.03.54-6.04-2.44,4.19-6.21,6.06-11.33,5.63-2.95-.25-5.57-1.26-7.85-3.01Zm17.83-8.43c1.36-1.19,2.12-2.65,2.27-4.38,0-.09.02-.17.02-.26.15-1.69-.37-3.21-1.58-4.56-1.2-1.35-2.66-2.1-4.37-2.25-1.84-.16-3.44.35-4.79,1.52-1.36,1.17-2.11,2.65-2.26,4.42-.15,1.82.36,3.41,1.54,4.78,1.18,1.37,2.64,2.12,4.38,2.28,1.83.16,3.42-.36,4.78-1.55Z"/><path class="cls-13" d="m641.32,371.7c-2.31-1.74-4.08-3.96-5.31-6.68-1.23-2.72-1.7-5.66-1.4-8.82.3-3.12,1.31-5.87,3.05-8.26,1.73-2.39,3.92-4.17,6.56-5.36,2.64-1.18,5.37-1.63,8.18-1.34,2.28.23,4.34,1.08,6.16,2.53,1.82,1.46,3.1,3.5,3.85,6.11.26-2.51.53-5.02.79-7.53,4.61.49,9.22.98,13.82,1.49-1.21,10.98-2.42,21.96-3.64,32.94-4.55-.5-9.11-.99-13.66-1.47.21-2.01.42-4.02.64-6.03-2.64,4.14-6.42,5.95-11.36,5.45-2.82-.29-5.38-1.3-7.69-3.03Zm17.64-8.17c1.37-1.1,2.19-2.49,2.46-4.17.02-.17.04-.35.05-.52.09-1.74-.44-3.28-1.6-4.63-1.16-1.35-2.58-2.11-4.24-2.28-1.84-.19-3.47.29-4.89,1.43-1.42,1.15-2.22,2.61-2.4,4.38-.18,1.82.32,3.42,1.5,4.81,1.18,1.39,2.66,2.17,4.45,2.36,1.74.18,3.3-.28,4.67-1.38Z"/></g><path class="cls-21" d="m727.42,91.02l-.3-1.38c-.99-4.56-6.46-6.44-10.04-3.45-13.74,11.48-44.99,35.94-89.31,60.83-22.82,13.8-49.13,27.02-74.47,35.25-55.79,17.68-113.63,27.87-172.39,28.39-114.63.4-229.42-29.77-329.2-85.94l-1.1,1.69c24.26,16.02,50.03,29.49,76.43,41.6,52.96,24.22,108.9,42.1,166.39,52.08,114.89,19.47,226.91,7.05,324.52-46.28l-.02.05c39.74-20.18,86.51-51.7,102.19-63.38,6.04-4.5,8.88-12.11,7.29-19.47Z"/><path class="cls-14" d="m74.1,222.36s-.2-17.73,3.77-24.88c3.97-7.14,10.09-15.07,21.11-15.95,11.01-.89,19.78,1.3,19.78,1.3,0,0,7.14,48.57-44.66,39.53h0Z"/><path class="cls-14" d="m0,124.25s17.43-3.28,25.16-.61c7.72,2.67,16.59,7.32,19.37,18.01,2.78,10.69,2.16,19.7,2.16,19.7,0,0-46.6,15.47-46.69-37.11h0Z"/><path class="cls-14" d="m39.35,62.86s15.15,9.23,19.1,16.38c3.95,7.15,7.43,16.54,2.35,26.35-5.09,9.81-11.58,16.09-11.58,16.09,0,0-44.98-19.69-9.86-58.82h0Z"/><path class="cls-21" d="m142.16,170.94c-35.83-10.74-90.06-46.69-90.06-46.69l-6.81-22.83,2.44,23.78-9.92-3.36s2.77,2.29,15.04,9.01c12.27,6.71,86.45,35.52,86.45,35.52,0,0-2.26,2.05-13.22,5.48-10.97,3.43-22.96,1.76-35.33,1.16-12.37-.6-68.34-30.52-68.34-30.52,0,0,39.28,28.75,61.4,32.7,22.12,3.96,35.17,2.07,35.17,2.07l-20.68,25.63,26.5-26.79s10.12-.95,15.92-1.74c5.8-.8,14.32.04,14.32.04"/><path class="cls-14" d="m351.64,261.18s-11.12,5.56-14.3,10.33c-3.18,4.77-6.16,11.12-3.18,18.28,2.98,7.15,7.15,11.92,7.15,11.92,0,0,32.58-11.12,10.33-40.52h0Z"/><path class="cls-14" d="m328.74,250.37s-8.09-9.45-13.48-11.38c-5.39-1.93-12.28-3.28-18.5,1.34-6.22,4.62-9.84,9.82-9.84,9.82,0,0,18.68,28.92,41.82.22h0Z"/><path class="cls-21" d="m375.1,223.65c-7.15,4.77-1.21-1.41-10.75,15.27-9.54,16.69-17.48,41.32-17.48,41.32,0,0,2.38-23.84,5.16-29.4,2.78-5.56,2.78-6.36,2.78-6.36,0,0-7.55,2.38-15.1,5.56-7.55,3.18-29.4.79-29.4.79,0,0,30.99-1.59,44.5-15.1,13.51-13.51,14.19-11.29,14.19-11.29"/><path class="cls-14" d="m623.89,174.32s52.51,8.74,26,59.21h0s-18.38-5.67-24.43-12.15c-6.06-6.47-12.21-15.41-9.47-27.08,2.74-11.66,7.9-19.99,7.9-19.99"/><polyline class="cls-21" points="623.6 170.44 632.49 194.79 619.27 172.6"/><g><path class="cls-10" d="m421.98,85.67c-11.34-41.89,50.77-19.18,42.98,52.11-3.24,2.31-14.14-2.68-17.96-2.59,6.33,23.72-18.18,26.96-23.25,23.2-4.19-7.56-.34-67.45-1.77-72.73Z"/><path class="cls-10" d="m318.69,83.4c16.54-40.12-47.94-25.44-49.22,46.27,2.22,2.49,14.36-.88,18.14-.29-9.28,22.73,14.63,29.04,20.13,25.95,5.11-6.97,8.86-66.87,10.94-71.92Z"/><path class="cls-23" d="m355.53,202.89s0,.93.48,1.34c.48.41,5.95,3.16,6.58,3.78.63.62.95,1.1,1.07,2.17.11,1.07-1.13,3.22-3.12,2.41-2-.81-5.05-2.65-5.05-2.65,0,0-.8,5.09-1.31,5.82-.51.73-4.38,2.53-4.61-.17-.23-2.69.06-5.39.06-5.39,0,0-3.22,3.24-5.21,3.05-1.99-.19-4.09-.59-2.75-2.77,1.34-2.19,9.27-5.57,9.78-7.55.5-1.97.39-24.1.39-24.1l3.72-.03-.03,24.1h0Z"/><path class="cls-23" d="m379.39,204.64s0,.9-.44,1.3c-.45.4-5.66,3.14-6.26,3.74-.6.6-.9,1.07-.99,2.1-.09,1.03,1.13,3.08,3.04,2.26,1.9-.81,4.81-2.63,4.81-2.63,0,0,.85,4.87,1.36,5.56.5.69,4.25,2.35,4.42-.24.18-2.59-.15-5.18-.15-5.18,0,0,3.15,3.06,5.06,2.84,1.91-.22,3.92-.63,2.59-2.71-1.33-2.08-9-5.2-9.52-7.09-.52-1.89-.52-25.81-.52-25.81l-3.58.03.17,25.81h0Z"/><path class="cls-20" d="m383.34,16.57s-8.31-3.19-17.14-2.46c-8.26.68-14.46,2.74-14.46,2.74l-23.33-15.47-4.67,34.64s-22.31,38.06-28.06,75c-5.75,36.94,13.87,70.39,44.83,75.67,30.97,5.28,50.27,2.17,59.07-1.17,8.81-3.34,35.24-12.06,40.5-41.48,5.27-29.42,1.45-55.5-8.56-78.92-10.01-23.42-14.48-29.91-14.48-29.91l-4.72-35.21s-19.63,13.55-28.99,16.57h0Z"/><path class="cls-4" d="m316.51,159.31c8.32,14.72,23.87,26.76,44.52,27.38,32.62.97,43.1-5.21,56.56-20.52,23.7-26.97,1.5-67.03-21.65-90.95-15.24-15.75-20.34-23.3-38.23-13.48,0,0-28.84,30.34-42.4,53.01-3.19,5.34-4.02,9.05-4.5,10.92h0c-1.75,6.78-1.4,14.46.79,22.02.53,1.65,1.38,4.16,2.23,6.01"/><path class="cls-13" d="m394.62,85.16c-15.77.14-28.66-11.91-28.79-26.9-.13-15,12.55-27.26,28.32-27.4,15.77-.14,28.66,11.91,28.79,26.9.13,15-12.55,27.26-28.32,27.4h0Z"/><path class="cls-13" d="m346.65,85.58c-15.77.14-28.66-11.91-28.79-26.9-.13-14.99,12.55-27.26,28.32-27.4,15.77-.14,28.66,11.91,28.79,26.9.13,15-12.55,27.26-28.32,27.4h0Z"/><path class="cls-5" d="m391.78,79.28c-12.4.11-22.53-9.36-22.63-21.14-.1-11.78,9.86-21.43,22.26-21.53,12.39-.11,22.53,9.36,22.63,21.14.1,11.79-9.86,21.43-22.26,21.53h0Z"/><path class="cls-5" d="m349.85,79.65c-12.4.11-22.53-9.36-22.63-21.14-.1-11.78,9.86-21.43,22.26-21.53,12.39-.11,22.53,9.36,22.63,21.14.1,11.78-9.86,21.43-22.26,21.53h0Z"/><path class="cls-23" d="m370.96,86.41l-6.55-8.49c-3.37-4.37-1.15-10.94,4.26-12.04.41-.08.82-.15,1.25-.2,6.75-.76,11.09,7.08,7.06,12.55l-6.02,8.18Z"/><path class="cls-17" d="m338.45,59.47c-.24-5.89,4.59-10.86,10.79-11.11,6.19-.25,11.41,4.32,11.64,10.21"/><path class="cls-17" d="m381.04,59.02c.08-5.89,5.16-10.6,11.36-10.52,6.2.08,11.16,4.93,11.08,10.82"/><path class="cls-9" d="m346.94,112.27c4.55,3.72,5.13,13.72,2.28,14-8.79.85-3.71-10.86-2.28-14h0Zm11.69-4.52h0c-1.43,3.14-6.51,14.85,2.28,14,2.85-.28,2.27-10.28-2.28-14h0Zm12.49,2.76h0c4.55,3.72,5.13,13.72,2.28,14-8.79.85-3.71-10.86-2.28-14h0Zm10.92-4.47h0c-1.43,3.14-6.51,14.84,2.28,14,2.85-.28,2.27-10.28-2.28-14h0Zm10.29,4.64h0c4.54,3.71,5.13,13.72,2.28,14-8.79.85-3.71-10.86-2.28-14h0Zm10.7-8.3c-1.43,3.14-6.51,14.85,2.28,14,2.85-.28,2.27-10.28-2.28-14h0Zm-20.65,22.83h0c-1.43,3.14-6.51,14.85,2.28,14,2.85-.28,2.27-10.28-2.28-14h0Zm-13.14,2.88c-1.43,3.14-6.51,14.84,2.28,14,2.85-.28,2.27-10.28-2.28-14h0Zm-14.19-2.34c4.54,3.71,5.13,13.72,2.28,14-8.79.85-3.71-10.86-2.28-14h0Zm46.92-1.67c4.55,3.71,5.13,13.72,2.28,14-8.79.85-3.71-10.86-2.28-14h0Zm-65.02,2.02h0c-1.43,3.14-6.51,14.85,2.28,14,2.85-.28,2.27-10.28-2.28-14h0Zm22.62,17.88c4.55,3.72,5.13,13.72,2.28,14-8.79.85-3.71-10.86-2.28-14h0Zm18.4-1.76c-1.43,3.14-6.51,14.85,2.28,14,2.85-.28,2.27-10.28-2.28-14h0Zm13.97-5h0c4.55,3.72,5.13,13.72,2.28,14-8.79.85-3.71-10.86-2.28-14h0Zm-45,1.56c-1.43,3.14-6.51,14.85,2.28,14,2.85-.28,2.27-10.28-2.28-14h0Zm-12.94-30.83c-1.43,3.14-6.51,14.85,2.28,14,2.85-.28,2.27-10.28-2.28-14h0Z"/></g><g><path class="cls-11" d="m497.57,84.99c-17.99,1.61-51.35,12.12-46.86,36.89,2.03,11.18,12.31,19.61,16.88,15.94,10.44-8.38,27.77-37.56,30.71-50.74.13-.58-.26-2.14-.73-2.09Z"/><path class="cls-11" d="m580.85,84.03c17.99,1.61,51.35,12.12,46.86,36.89-2.03,11.18-12.31,19.61-16.88,15.94-10.44-8.38-27.77-37.56-30.71-50.74-.13-.58.26-2.14.73-2.09Z"/><path class="cls-19" d="m529.51,186.67s.02.84.45,1.21c.43.37,5.38,2.8,5.96,3.35.58.55.86.98.98,1.94.11.96-.99,2.91-2.79,2.2-1.81-.71-4.57-2.35-4.57-2.35,0,0-.68,4.59-1.13,5.25-.45.66-3.92,2.31-4.15-.11-.23-2.42.01-4.86.01-4.86,0,0-2.87,2.95-4.67,2.79-1.8-.15-3.69-.5-2.5-2.48,1.19-1.98,8.31-5.09,8.75-6.87.44-1.78.28-12.36.28-12.36l3.36-.06.04,12.35h0Z"/><path class="cls-19" d="m553.42,185.15s.02.84-.4,1.22c-.42.38-5.28,2.99-5.83,3.56-.56.57-.83,1.01-.91,1.98-.08.96,1.09,2.88,2.87,2.1,1.78-.78,4.49-2.51,4.49-2.51,0,0,.84,4.56,1.32,5.21.48.65,4,2.17,4.15-.26.14-2.43-.18-4.85-.18-4.85,0,0,2.98,2.84,4.76,2.63,1.79-.22,3.67-.62,2.41-2.56-1.26-1.94-8.48-4.8-8.98-6.56-.5-1.77-.56-12.34-.56-12.34l-3.35.06.23,12.35h0Z"/><path class="cls-6" d="m550.74,32.01s-6.9-2.58-14.2-1.91c-6.83.63-11.95,2.37-11.95,2.37l-19.41-12.63-3.61,28.7s-18.18,31.65-22.68,62.26c-4.49,30.6,11.98,58.14,37.65,62.29,25.66,4.14,41.61,1.43,48.87-1.39,7.26-2.83,29.07-10.23,33.21-34.62,4.14-24.39.8-45.94-7.65-65.24-8.45-19.3-12.2-24.64-12.2-24.64l-4.16-29.1s-16.15,11.36-23.87,13.92h0Z"/><path class="cls-1" d="m495.15,113.75c7.36-20.59,34.71-44.17,34.71-44.17,14.73-8.26,19.01-2.05,31.73,10.87,19.33,19.63,37.99,52.62,18.57,75.1-11.02,12.76-19.65,17.95-46.65,17.39-17.09-.36-30.04-10.21-37.03-22.33,0,0-9.78-13.2-1.32-36.86Z"/><path class="cls-18" d="m560.57,88.68c-13.05.23-23.8-9.65-24.02-22.05-.22-12.41,10.19-22.65,23.24-22.88,13.05-.23,23.8,9.65,24.02,22.05.22,12.41-10.19,22.65-23.24,22.88h0Z"/><path class="cls-18" d="m520.88,89.38c-13.05.23-23.81-9.65-24.02-22.05-.22-12.41,10.19-22.65,23.24-22.88,13.05-.23,23.8,9.65,24.02,22.05.22,12.41-10.19,22.65-23.24,22.88h0Z"/><path class="cls-5" d="m558.17,83.84c-10.26.18-18.71-7.58-18.88-17.33-.17-9.75,8.01-17.8,18.26-17.98,10.26-.18,18.71,7.58,18.88,17.33.17,9.75-8.01,17.8-18.26,17.98h0Z"/><path class="cls-5" d="m523.49,84.45c-10.25.18-18.71-7.58-18.88-17.33-.17-9.75,8.01-17.8,18.26-17.98,10.26-.18,18.71,7.58,18.88,17.33.17,9.75-8.01,17.8-18.26,17.98h0Z"/><path class="cls-16" d="m512.97,70.58c-.22-5.37,4.18-9.9,9.83-10.13,5.64-.23,10.39,3.94,10.61,9.3"/><path class="cls-16" d="m547.64,69.25c.07-5.37,4.7-9.66,10.35-9.59,5.65.07,10.17,4.49,10.1,9.86"/><path class="cls-3" d="m496.98,117.02c-.32-12.27,17.95-14.71,26.04-9.51,17.92,11.52,21.52-7.46,35.41-2.75,4.25,1.44-1.53,16.16,14.78,7.07,3.23-1.8,8.23-1.22,9.84-.77,0,.14-23.71,20.37-25.55.94-.85-9.02-14.92,8.21-27.87,5.27-9.22-2.09-6.06-6.8-17.78-6.37-9.28.33-14.87,6.19-14.87,6.11Z"/><path class="cls-3" d="m500.75,131.98c-6.01-12.94,10.95-15.46,24.05-7.66,14.58,8.69,17.15-5.94,28.21-2.19,3.39,1.15,5.2,12.75,17.28,4.07.84-.61,6.56-.98,7.84-.61,0,.11-24.4,17.79-25.87,2.31-.68-7.19-11.88,6.54-22.2,4.2-7.34-1.67-11.85-7.66-21.18-7.32-7.39.27-8.11,7.25-8.13,7.2Z"/><path class="cls-3" d="m503.37,152.17c-1.57-14.56,11.68-20.41,22.82-7.66,9.76,11.17,16.58-6.91,26.77-2.19,3.11,1.44,4.94,12.75,16.4,4.07.8-.61,6.22-.98,7.44-.61,0,.11-23.16,17.79-24.55,2.31-.64-7.19-11.28,6.54-21.07,4.2-6.97-1.67-8.15-11.84-17.01-11.51-7.01.27-10.8,11.44-10.81,11.38Z"/><path class="cls-19" d="m540.83,92.7l-5.97-7.74c-3.07-3.98-1.05-9.97,3.88-10.97.37-.08.75-.14,1.14-.18,6.15-.7,10.1,6.45,6.43,11.44l-5.48,7.45Z"/></g><g><path class="cls-7" d="m169.94,88.27c-16.21,1.45-46.26,10.92-42.22,33.24,1.83,10.07,11.09,17.67,15.21,14.36,9.4-7.55,25.02-33.84,27.67-45.71.12-.52-.23-1.92-.66-1.89Z"/><path class="cls-7" d="m244.98,87.39c16.21,1.45,46.26,10.92,42.22,33.24-1.83,10.07-11.09,17.67-15.21,14.36-9.4-7.55-25.02-33.84-27.67-45.71-.12-.52.23-1.92.66-1.89Z"/><path class="cls-19" d="m197.7,179.7s.01.81.43,1.16c.41.35,5.19,2.7,5.74,3.23.55.53.83.95.94,1.87.11.93-.95,2.81-2.69,2.12-1.74-.69-4.41-2.26-4.41-2.26,0,0-.66,4.42-1.09,5.06-.44.64-3.78,2.23-4-.11-.22-2.34,0-4.68,0-4.68,0,0-2.77,2.84-4.5,2.69-1.73-.15-3.56-.48-2.41-2.39,1.15-1.91,8.01-4.91,8.43-6.63.42-1.72.27-7.76.27-7.76l3.23-.06.04,7.76h0Z"/><path class="cls-19" d="m217.3,183.78s.01.81-.39,1.18c-.4.37-5.09,2.88-5.62,3.43-.54.55-.8.98-.88,1.9-.07.93,1.05,2.77,2.76,2.02,1.71-.75,4.32-2.42,4.32-2.42,0,0,.81,4.4,1.27,5.02.46.62,3.86,2.09,4-.25.14-2.34-.17-3.61-.17-3.61,0,0,2.87,1.68,4.59,1.47,1.72-.21,3.54-.6,2.32-2.47-1.22-1.87-8.18-4.63-8.66-6.33-.48-1.7-.54-12.73-.54-12.73l-3.47-2.99.46,15.78h0Z"/><path class="cls-14" d="m217.85,45.19s-6.22-2.33-12.79-1.72c-6.15.56-10.76,2.14-10.76,2.14l-17.49-11.38-3.25,25.86s-16.38,28.52-20.43,56.09c-4.05,27.57,10.8,52.38,33.92,56.12,23.12,3.73,37.49,1.29,44.03-1.26,6.54-2.55,26.19-9.22,29.92-31.19,3.73-21.97.72-41.39-6.89-58.78-7.61-17.39-10.99-22.2-10.99-22.2l-3.75-26.22s-14.55,10.23-21.51,12.55h0Z"/><path class="cls-22" d="m167.77,118.83c6.63-18.55,31.27-39.8,31.27-39.8,13.27-7.44,17.13-1.84,28.59,9.8,17.42,17.69,34.23,47.4,16.73,67.66-9.93,11.5-17.71,16.17-42.03,15.66-15.4-.32-27.06-9.2-33.36-20.12,0,0-8.81-11.89-1.19-33.2Z"/><path class="cls-12" d="m226.7,96.24c-11.76.2-21.45-8.69-21.64-19.87-.19-11.18,9.18-20.41,20.93-20.61,11.76-.2,21.45,8.69,21.64,19.87.19,11.18-9.18,20.41-20.93,20.61h0Z"/><path class="cls-12" d="m190.95,96.87c-11.76.21-21.45-8.69-21.64-19.87-.19-11.18,9.18-20.41,20.93-20.61,11.76-.2,21.45,8.69,21.64,19.87.2,11.18-9.18,20.41-20.93,20.61h0Z"/><path class="cls-5" d="m224.55,91.88c-9.24.16-16.85-6.83-17.01-15.61-.15-8.79,7.21-16.04,16.45-16.2,9.24-.16,16.85,6.83,17.01,15.61.15,8.79-7.21,16.04-16.45,16.2h0Z"/><path class="cls-5" d="m193.29,92.43c-9.24.16-16.85-6.83-17.01-15.61-.15-8.79,7.21-16.04,16.45-16.2,9.24-.16,16.85,6.83,17.01,15.62.15,8.78-7.21,16.04-16.45,16.2h0Z"/><path class="cls-15" d="m183.82,79.93c-.19-4.83,3.77-8.92,8.85-9.12,5.08-.2,9.36,3.55,9.56,8.38"/><path class="cls-15" d="m215.06,78.73c.06-4.84,4.24-8.7,9.33-8.64,5.09.07,9.16,4.04,9.1,8.88"/><path class="cls-19" d="m208.92,99.87l-5.38-6.97c-2.77-3.59-.94-8.98,3.5-9.88.34-.07.68-.12,1.02-.16,5.54-.63,9.1,5.81,5.79,10.3l-4.94,6.71Z"/><g class="cls-2"><g><path class="cls-8" d="m185.99,154.33c.14,4.26,5.71,10.65,11.52,3.7,4.15-4.96,2.76-2.9-2.51-.57-.79.35-3.62.85-5.83-.15-1.73-.78-3.19-3.23-3.18-2.98Z"/><path class="cls-8" d="m175.89,143.62c.14,4.26,5.71,10.64,11.52,3.7,4.15-4.96,2.76-2.9-2.51-.57-.79.35-3.62.84-5.83-.16-1.73-.78-3.19-3.23-3.18-2.98Z"/><path class="cls-8" d="m191.75,143.26c.14,4.26,5.71,10.65,11.52,3.7,4.15-4.96,2.76-2.9-2.51-.57-.79.35-3.62.84-5.83-.15-1.73-.78-3.19-3.23-3.18-2.98Z"/><path class="cls-8" d="m172.89,133.05c.14,4.26,5.71,10.65,11.52,3.7,4.15-4.96,2.76-2.9-2.51-.57-.79.35-3.62.85-5.83-.15-1.73-.78-3.18-3.23-3.18-2.98Z"/><path class="cls-8" d="m190.68,132.72c.14,4.26,5.71,10.64,11.52,3.7,4.15-4.96,2.76-2.9-2.51-.57-.79.35-3.62.85-5.83-.15-1.73-.78-3.19-3.23-3.18-2.98Z"/><path class="cls-8" d="m171.96,120.83c.14,4.26,5.71,10.64,11.52,3.7,4.15-4.96,2.76-2.9-2.51-.57-.79.35-3.62.84-5.83-.15-1.73-.78-3.19-3.23-3.18-2.98Z"/><path class="cls-8" d="m190.8,119.5c.14,4.26,5.71,10.64,11.52,3.7,4.15-4.96,2.76-2.9-2.51-.57-.79.35-3.62.85-5.83-.15-1.73-.78-3.19-3.23-3.18-2.98Z"/><path class="cls-8" d="m179.76,108.64c.14,4.26,5.71,10.65,11.52,3.7,4.15-4.96,2.76-2.9-2.51-.57-.78.35-3.62.84-5.83-.15-1.73-.78-3.19-3.23-3.18-2.98Z"/></g></g><g class="cls-2"><g><path class="cls-8" d="m222.89,151.79c.14,4.26,5.71,10.65,11.52,3.7,4.15-4.96,2.76-2.9-2.51-.57-.79.35-3.62.85-5.83-.15-1.73-.78-3.19-3.23-3.18-2.98Z"/><path class="cls-8" d="m212.79,141.08c.14,4.26,5.71,10.64,11.52,3.7,4.15-4.96,2.76-2.9-2.51-.57-.79.35-3.62.84-5.83-.16-1.73-.78-3.19-3.23-3.18-2.98Z"/><path class="cls-8" d="m228.65,140.71c.14,4.26,5.71,10.65,11.52,3.7,4.15-4.96,2.76-2.9-2.51-.57-.79.35-3.62.84-5.83-.15-1.73-.78-3.19-3.23-3.18-2.98Z"/><path class="cls-8" d="m209.79,130.51c.14,4.26,5.71,10.65,11.52,3.7,4.15-4.96,2.76-2.9-2.51-.57-.79.35-3.62.85-5.83-.15-1.73-.78-3.18-3.23-3.18-2.98Z"/><path class="cls-8" d="m204.91,153.75c.14,4.26,5.71,10.65,11.52,3.7,4.15-4.96,2.76-2.9-2.51-.57-.79.35-3.62.85-5.83-.15-1.73-.78-3.18-3.23-3.18-2.98Z"/><path class="cls-8" d="m198.72,105.6c.14,4.26,5.71,10.65,11.52,3.7,4.15-4.96,2.76-2.9-2.51-.57-.79.35-3.62.85-5.83-.15-1.73-.78-3.18-3.23-3.18-2.98Z"/><path class="cls-8" d="m227.58,130.18c.14,4.26,5.71,10.64,11.52,3.7,4.15-4.96,2.76-2.9-2.51-.57-.79.35-3.62.85-5.83-.15-1.73-.78-3.19-3.23-3.18-2.98Z"/><path class="cls-8" d="m208.86,118.28c.14,4.26,5.71,10.64,11.52,3.7,4.15-4.96,2.76-2.9-2.51-.57-.79.35-3.62.84-5.83-.15-1.73-.78-3.19-3.23-3.18-2.98Z"/><path class="cls-8" d="m227.7,116.96c.14,4.26,5.71,10.64,11.52,3.7,4.15-4.96,2.76-2.9-2.51-.57-.79.35-3.62.85-5.83-.15-1.73-.78-3.19-3.23-3.18-2.98Z"/><path class="cls-8" d="m216.66,106.1c.14,4.26,5.71,10.65,11.52,3.7,4.15-4.96,2.76-2.9-2.51-.57-.78.35-3.62.84-5.83-.15-1.73-.78-3.19-3.23-3.18-2.98Z"/></g></g></g><path class="cls-13" d="m183.17,328.24s-3.41-20.94,19.46-18.64c0,0,3.31,20.68-19.46,18.64Z"/></svg>